<?xml version="1.0" encoding="UTF-8" standalone="no"?>
<svg width="603px" height="144px" viewBox="0 0 603 144" version="1.1" xmlns="http://www.w3.org/2000/svg" xmlns:xlink="http://www.w3.org/1999/xlink" xmlns:sketch="http://www.bohemiancoding.com/sketch/ns">
    <!-- Generator: Sketch 3.0.1 (7597) - http://www.bohemiancoding.com/sketch -->
    <title>window-controls</title>
    <description>Created with Sketch.</description>
    <defs></defs>
    <g id="Page-1" stroke="none" stroke-width="1" fill="none" fill-rule="evenodd" sketch:type="MSPage">
        <g id="window-controls" sketch:type="MSLayerGroup" transform="translate(0.000000, -47.000000)" fill="#FFFFFF">
            <rect id="Rectangle-1" sketch:type="MSShapeGroup" x="0" y="165" width="130" height="26" rx="5"></rect>
            <g id="Rectangle-2-+-Rectangle-5" transform="translate(549.000000, 123.000000) rotate(-45.000000) translate(-549.000000, -123.000000) translate(484.000000, 58.000000)" sketch:type="MSShapeGroup">
                <rect id="Rectangle-2" x="-1.42108547e-14" y="52" width="130" height="26" rx="5"></rect>
                <rect id="Rectangle-5" transform="translate(65.000000, 65.000000) rotate(-270.000000) translate(-65.000000, -65.000000) " x="-1.42108547e-14" y="52" width="130" height="26" rx="5"></rect>
            </g>
            <g id="Rectangle-4-+-Triangle-1" transform="translate(234.000000, 0.000000)" sketch:type="MSShapeGroup">
                <path d="M90.004311,69.6758839 L87.3284271,67 L12.00231,67 C5.37361723,67 0,72.3679254 0,79.00231 L0,178.99769 C0,185.626383 5.36792538,191 12.00231,191 L111.99769,191 C118.626383,191 124,185.632075 124,178.99769 L124,103.671573 L124,103.671573 L121.117009,100.788582 L106,115.905592 L106,167.994168 C106,170.761998 103.758813,173 100.994168,173 L24.0058316,173 C21.2380017,173 19,170.758813 19,167.994168 L19,91.0058316 C19,88.2380017 21.2411871,86 24.0058316,86 L73.6801948,86 L90.004311,69.6758839 Z" id="Rectangle-4"></path>
                <path d="M125,80 L152,80 L108.5,33 L65,80 L92,80 L92,130 L125,130 L125,80 Z" id="Triangle-1" transform="translate(108.500000, 81.500000) rotate(-315.000000) translate(-108.500000, -81.500000) "></path>
            </g>
        </g>
    </g>
</svg>